<svg xmlns="http://www.w3.org/2000/svg" viewBox="0 0 256 256" xml:space="preserve"><path fill="#fff" d="M0 0h256v256H0z"/><path d="m41.8 121 21.4 11.9c1.1.6 1.8 1.1 2.1 1.6.4.5.5 1.1.5 1.8 0 .9-.3 1.7-1 2.4s-1.4 1-2.3 1c-.6 0-1.5-.3-2.6-1L28 121l31.9-17.7c1.2-.6 2-.9 2.6-.9.9 0 1.7.3 2.4 1s1 1.5 1 2.4c0 .7-.2 1.3-.5 1.8-.4.5-1.1 1-2.1 1.6L41.8 121zM105.5 125.8c0 2.5-.7 5-2.1 7.4s-3.5 4.3-6.3 5.7-5.7 2.1-8.7 2.1-5.9-.7-8.6-2.1c-2.8-1.4-4.8-3.3-6.3-5.7-1.4-2.4-2.2-4.9-2.2-7.5 0-2.6.7-5.2 2.2-7.8 1.5-2.5 3.6-4.6 6.3-6 2.7-1.5 5.6-2.2 8.6-2.2s5.9.7 8.7 2.2 4.9 3.5 6.3 6c1.4 2.6 2.1 5.2 2.1 7.9zm-6.6 0c0-2.1-.8-4.1-2.3-5.9-2.1-2.4-4.8-3.6-8.2-3.6-3 0-5.5 1-7.5 2.9s-3 4.1-3 6.6c0 2.1 1 4 3 5.8s4.5 2.7 7.5 2.7 5.5-.9 7.5-2.7 3-3.7 3-5.8zM135.2 112.5v-2h7.7c1.6 0 2.7.3 3.4.9s1 1.4 1 2.4-.3 1.8-1 2.4-1.8.9-3.4.9h-1.1v24.1c0 2.3-.5 4.3-1.5 6.1-1 1.7-2.5 3.2-4.5 4.5-2 1.2-4.3 1.9-6.8 1.9h-7.5c-1.6 0-2.7-.3-3.4-.9-.7-.6-1-1.4-1-2.4s.3-1.8 1-2.4c.7-.6 1.8-.9 3.4-.9h7.3c2 0 3.6-.5 4.7-1.6s1.7-2.5 1.7-4.2V138c-1.5.9-3 1.7-4.5 2.1-1.5.5-3.1.7-4.7.7-4.5 0-8.3-1.5-11.3-4.5s-4.5-6.7-4.5-11.1 1.5-8.1 4.5-11.1 6.8-4.5 11.3-4.5c1.7 0 3.3.2 4.8.7 1.6.5 3.1 1.2 4.4 2.2zm0 12.7c0-2.4-.9-4.5-2.7-6.3s-4-2.7-6.5-2.7-4.7.9-6.5 2.7c-1.8 1.8-2.7 3.9-2.7 6.3 0 2.5.9 4.6 2.7 6.3 1.8 1.8 4 2.7 6.5 2.7s4.7-.9 6.5-2.7c1.8-1.7 2.7-3.8 2.7-6.3zM172.6 115c0 1.2-.4 2.3-1.3 3.1-.9.8-2.1 1.3-3.6 1.3s-2.8-.4-3.6-1.3c-.9-.8-1.3-1.9-1.3-3.1s.4-2.3 1.3-3.1 2.1-1.3 3.6-1.3 2.8.4 3.6 1.3 1.3 1.8 1.3 3.1zm.1 21.6c0 1.2-.4 2.3-1.3 3.1s-2.1 1.3-3.6 1.3-2.8-.4-3.6-1.3-1.3-1.9-1.3-3.1.4-2.3 1.3-3.1 2.1-1.3 3.6-1.3 2.8.4 3.6 1.3 1.3 1.9 1.3 3.1zM214.2 121l-21.4-11.9c-1.1-.6-1.8-1.1-2.1-1.6-.4-.5-.5-1.1-.5-1.8 0-.9.3-1.7 1-2.4s1.5-1 2.4-1c.6 0 1.4.3 2.6.9L228 121l-31.9 17.7c-1.2.6-2 1-2.6 1-.9 0-1.7-.3-2.4-1s-1-1.5-1-2.4c0-.7.2-1.3.5-1.8.4-.5 1.1-1 2.1-1.6l21.5-11.9z"/></svg>